<?xml version="1.0" standalone="no"?><!DOCTYPE svg PUBLIC "-//W3C//DTD SVG 1.1//EN" "http://www.w3.org/Graphics/SVG/1.1/DTD/svg11.dtd"><svg t="1533555316088" class="icon" style="" viewBox="0 0 1024 1024" version="1.1" xmlns="http://www.w3.org/2000/svg" p-id="3248" xmlns:xlink="http://www.w3.org/1999/xlink" width="48" height="48"><defs><style type="text/css"></style></defs><path d="M902.4 940.8c-19.2 0-32-12.8-32-32V896c0-19.2-12.8-32-32-32H211.2c-19.2 0-32 12.8-32 32v12.8c0 19.2-12.8 32-32 32s-32-12.8-32-32V896c0-51.2 44.8-96 96-96h627.2c51.2 0 96 44.8 96 96v12.8c0 12.8-12.8 32-32 32zM736 755.2H313.6c-51.2 0-89.6-38.4-89.6-89.6V454.4c0-166.4 134.4-300.8 300.8-300.8s300.8 134.4 300.8 300.8v211.2c0 44.8-38.4 89.6-89.6 89.6zM524.8 211.2C396.8 211.2 288 320 288 448v211.2c0 12.8 12.8 25.6 25.6 25.6h422.4c12.8 0 25.6-12.8 25.6-25.6V454.4c0-134.4-102.4-243.2-236.8-243.2z" fill="#108ee9" p-id="3249"></path><path d="M332.8 467.2H320c-19.2-6.4-25.6-25.6-19.2-44.8 19.2-32 51.2-57.6 89.6-57.6 38.4 0 70.4 19.2 89.6 57.6 6.4 12.8 0 32-12.8 44.8-19.2 6.4-38.4 0-44.8-19.2-12.8-25.6-51.2-25.6-64 0-6.4 12.8-19.2 19.2-25.6 19.2zM588.8 467.2H576c-12.8-6.4-25.6-25.6-12.8-44.8 12.8-32 51.2-57.6 89.6-57.6 38.4 0 70.4 19.2 89.6 57.6 6.4 12.8 0 32-12.8 44.8-12.8 6.4-32 0-44.8-12.8-12.8-25.6-51.2-25.6-64 0-6.4 6.4-19.2 12.8-32 12.8z" fill="#108ee9" p-id="3250"></path><path d="M204.8 467.2c0 70.4 0 134.4-38.4 134.4s-64-57.6-64-128 32-128 64-128 38.4 51.2 38.4 121.6zM844.8 467.2c0 70.4 0 134.4 38.4 134.4s64-57.6 64-128-32-128-64-128-38.4 51.2-38.4 121.6z" fill="#108ee9" p-id="3251"></path><path d="M876.8 473.6c-12.8 0-25.6-12.8-25.6-25.6 0-217.6-128-352-332.8-352S192 224 192 435.2c0 12.8-12.8 25.6-25.6 25.6s-25.6-12.8-25.6-25.6c0-243.2 140.8-384 384-384 230.4 0 377.6 153.6 377.6 403.2 0 12.8-12.8 19.2-25.6 19.2z" fill="#108ee9" p-id="3252"></path></svg>