<?xml version="1.0" standalone="no"?><!DOCTYPE svg PUBLIC "-//W3C//DTD SVG 1.1//EN" "http://www.w3.org/Graphics/SVG/1.1/DTD/svg11.dtd"><svg t="1533462319546" class="icon" style="" viewBox="0 0 1024 1024" version="1.1" xmlns="http://www.w3.org/2000/svg" p-id="3356" xmlns:xlink="http://www.w3.org/1999/xlink" width="48" height="48"><defs><style type="text/css"></style></defs><path d="M815.663 781.93c-44.225-92.71-362.246-85.756-241.07-226.907 39.671-46.625 81.499-109.61 81.499-177.1 0-121.955-81.159-221.082-180.977-221.082-99.722 0-181.076 99.127-181.076 221.082 0 67.49 25.568 112.743 76.65 175.925 84.245 124.351-191.211 133.46-232.842 222.159-12.342 26.348-14.5 46.774-14.305 70.329 0 3.038-0.29 6.17 1.227 8.667 1.517 2.452 3.869 3.968 6.418 3.968h686.877c2.45 0 4.848-1.517 6.318-3.968 1.517-2.497 1.225-5.582 1.225-8.667 0.492-26.35-3.038-49.957-9.944-64.405z" fill="#ffffff" p-id="3357"></path><path d="M937.19 491.418h-91.044v-91.033c0-12.593-10.224-22.773-22.76-22.773-12.57 0-22.76 10.18-22.76 22.773v91.033H709.58c-12.58 0-22.773 10.18-22.773 22.783 0 12.537 10.192 22.763 22.773 22.763h91.046v91.044c0 12.558 10.19 22.739 22.76 22.739 12.536 0 22.76-10.18 22.76-22.739v-91.044h91.045c12.58 0 22.76-10.225 22.76-22.763 0.001-12.602-10.18-22.783-22.76-22.783z" fill="#ffffff" p-id="3358"></path></svg>