<?xml version="1.0" standalone="no"?><!DOCTYPE svg PUBLIC "-//W3C//DTD SVG 1.1//EN" "http://www.w3.org/Graphics/SVG/1.1/DTD/svg11.dtd"><svg t="1533215167024" class="icon" style="" viewBox="0 0 1024 1024" version="1.1" xmlns="http://www.w3.org/2000/svg" p-id="2256" xmlns:xlink="http://www.w3.org/1999/xlink" width="128" height="128"><defs><style type="text/css"></style></defs><path d="M268.8 569.6C147.2 608 44.8 704 6.4 832c-12.8 38.4 19.2 64 57.6 83.2 102.4 38.4 563.2 38.4 710.4 0 38.4-12.8 70.4-44.8 57.6-83.2-44.8-121.6-140.8-217.6-268.8-256" p-id="2257" fill="#ffffff"></path><path d="M153.6 345.6a262.4 262.4 0 1 0 524.8 0 262.4 262.4 0 1 0-524.8 0zM1024 499.2H902.4V377.6h-57.6v121.6H723.2v57.6h121.6v121.6h57.6V556.8H1024z" p-id="2258" fill="#ffffff"></path></svg>