<?xml version="1.0" standalone="no"?><!DOCTYPE svg PUBLIC "-//W3C//DTD SVG 1.1//EN" "http://www.w3.org/Graphics/SVG/1.1/DTD/svg11.dtd"><svg t="1533555683090" class="icon" style="" viewBox="0 0 1024 1024" version="1.1" xmlns="http://www.w3.org/2000/svg" p-id="5223" xmlns:xlink="http://www.w3.org/1999/xlink" width="48" height="48"><defs><style type="text/css"></style></defs><path d="M512 1024C229.376 1024 0 794.624 0 512S229.376 0 512 0s512 229.376 512 512-231.424 512-512 512z m0-979.456C253.952 44.544 44.544 253.952 44.544 512s209.408 467.456 467.456 467.456 467.456-209.408 467.456-467.456S768 44.544 512 44.544z" p-id="5224" fill="#8a8a8a"></path><path d="M801.28 554.496c0 160.256-129.024 289.28-289.28 289.28s-289.28-129.024-289.28-289.28h578.56zM616.448 349.696c0 31.744 26.112 57.856 57.856 57.856 31.744 0 57.856-26.112 57.856-57.856 0-32.256-25.6-57.856-57.856-57.856-31.744 0-57.856 25.6-57.856 57.856zM289.28 349.696c0 31.744 26.112 57.856 57.856 57.856s57.856-26.112 57.856-57.856c0-32.256-25.6-57.856-57.856-57.856-31.744 0-57.856 25.6-57.856 57.856z" p-id="5225" fill="#8a8a8a"></path></svg>