<?xml version="1.0" standalone="no"?><!DOCTYPE svg PUBLIC "-//W3C//DTD SVG 1.1//EN" "http://www.w3.org/Graphics/SVG/1.1/DTD/svg11.dtd"><svg t="1533555622116" class="icon" style="" viewBox="0 0 1024 1024" version="1.1" xmlns="http://www.w3.org/2000/svg" p-id="3941" xmlns:xlink="http://www.w3.org/1999/xlink" width="48" height="48"><defs><style type="text/css"></style></defs><path d="M420.1 430.6l-80.7 82.3 82.3 82.3c43.6-45.1 43.6-119.4-1.6-164.6z" fill="#707070" p-id="3942"></path><path d="M502.4 675.9c43.4-43.1 67.8-101.8 67.8-163s-24.4-119.8-67.8-163l-40.3 40.3c32.5 32.5 50.8 76.6 50.8 122.6s-18.3 90.1-50.8 122.6l40.3 40.5z" fill="#707070" p-id="3943"></path><path d="M542.8 308c113 113 113 295.3 0 408.3l40.3 40.3c135.6-133.9 135.6-353.4 0-489L542.8 308z" fill="#707070" p-id="3944"></path><path d="M922 338.8c-22.4-53-54.5-100.6-95.4-141.4-40.9-40.9-88.4-72.9-141.4-95.4C630.3 78.8 572.1 67 512 67c-60.1 0-118.3 11.8-173.2 35-53 22.4-100.6 54.5-141.4 95.4s-72.9 88.4-95.4 141.4C78.8 393.7 67 451.9 67 512c0 60.1 11.8 118.3 35 173.2 22.4 53 54.5 100.6 95.4 141.4 40.9 40.9 88.4 72.9 141.4 95.4 54.9 23.2 113.2 35 173.2 35 60.1 0 118.3-11.8 173.2-35 53-22.4 100.6-54.5 141.4-95.4 40.9-40.9 72.9-88.4 95.4-141.4 23.2-54.9 35-113.2 35-173.2 0-60.1-11.8-118.3-35-173.2z m-46.6 326.7c-19.9 47-48.3 89.2-84.5 125.4s-78.4 64.7-125.4 84.5c-48.6 20.6-100.3 31-153.5 31s-104.9-10.4-153.5-31c-47-19.9-89.2-48.3-125.4-84.5s-64.7-78.4-84.5-125.4c-20.6-48.6-31-100.3-31-153.5s10.4-104.9 31-153.5c19.9-47 48.3-89.2 84.5-125.4s78.4-64.7 125.4-84.5c48.6-20.6 100.3-31 153.5-31s104.9 10.4 153.5 31c47 19.9 89.2 48.3 125.4 84.5s64.7 78.4 84.5 125.4c20.6 48.6 31 100.3 31 153.5s-10.4 104.9-31 153.5z" fill="#707070" p-id="3945"></path></svg>