<?xml version="1.0" standalone="no"?><!DOCTYPE svg PUBLIC "-//W3C//DTD SVG 1.1//EN" "http://www.w3.org/Graphics/SVG/1.1/DTD/svg11.dtd"><svg t="1533275475581" class="icon" style="" viewBox="0 0 1024 1024" version="1.1" xmlns="http://www.w3.org/2000/svg" p-id="2424" xmlns:xlink="http://www.w3.org/1999/xlink" width="128" height="128"><defs><style type="text/css"></style></defs><path d="M714.24 486.4c0-13.824 4.608-25.6 14.336-34.816 9.728-9.728 21.504-14.336 35.84-14.336s26.112 4.608 35.84 14.336c9.728 9.216 14.336 20.992 14.336 34.816s-4.608 25.6-14.336 35.328c-9.728 9.728-21.504 14.848-35.84 14.848s-26.112-5.12-35.84-14.848c-9.216-9.728-14.336-21.504-14.336-35.328z" fill="#1296db" p-id="2425"></path><path d="M764.416 388.096h252.928v-148.48c0-27.648-9.728-51.2-29.696-70.656-19.456-19.456-43.52-29.184-71.68-29.184H107.52c-28.16 0-52.224 9.728-71.68 29.184-19.456 19.456-29.696 43.008-29.696 70.656v545.792c0 13.824 2.56 26.624 8.192 38.912 5.632 11.776 13.312 22.528 23.04 31.744 9.728 9.216 20.992 16.384 33.28 21.504 12.8 5.12 26.112 7.68 39.936 7.68h808.448c14.336 0 27.136-2.56 38.912-7.68s22.528-12.288 31.232-21.504c8.704-9.216 15.872-19.456 20.48-31.744 4.608-11.776 7.168-25.088 7.168-38.912v-199.168h-252.928c-26.112 0-46.08-5.12-59.392-15.36-13.824-10.24-23.552-21.504-29.696-33.792-7.68-14.336-11.776-31.232-12.288-50.176 0-27.648 9.728-51.2 29.696-70.144 19.968-19.456 44.032-28.672 72.192-28.672zM412.16 212.992H131.072c-12.288 0-22.528-10.24-22.528-22.528 0-12.288 10.24-22.528 22.528-22.528h281.088c12.288 0 22.528 10.24 22.528 22.528 0 12.8-10.24 22.528-22.528 22.528z m83.456-4.608c-5.12 5.12-10.752 7.68-17.92 7.68s-13.312-2.56-17.92-7.68c-5.12-5.12-7.168-10.752-7.168-17.92s2.56-12.8 7.168-17.92c5.12-4.608 10.752-7.168 17.92-7.168s13.312 2.56 17.92 7.168c5.12 4.608 7.168 10.752 7.168 17.92s-2.56 12.8-7.168 17.92z" fill="#1296db" p-id="2426"></path></svg>