<?xml version="1.0" standalone="no"?><!DOCTYPE svg PUBLIC "-//W3C//DTD SVG 1.1//EN" "http://www.w3.org/Graphics/SVG/1.1/DTD/svg11.dtd"><svg t="1533283880183" class="icon" style="" viewBox="0 0 1024 1024" version="1.1" xmlns="http://www.w3.org/2000/svg" p-id="4666" xmlns:xlink="http://www.w3.org/1999/xlink" width="128" height="128"><defs><style type="text/css"></style></defs><path d="M430.08 437.76h2.56zM860.16 227.84c-15.36 0-28.16 2.56-40.96 7.68-7.68 2.56-17.92 5.12-23.04 12.8-2.56 2.56-7.68 5.12-12.8 7.68-15.36 2.56-28.16 12.8-35.84 25.6-5.12 5.12-7.68 10.24-12.8 15.36l-2.56 2.56c-2.56 2.56-2.56 2.56-5.12 2.56s-2.56-2.56-2.56-5.12c0-5.12-2.56-10.24-5.12-15.36-2.56-10.24-10.24-12.8-17.92-12.8-12.8 0-23.04 2.56-35.84 5.12-30.72 5.12-61.44 10.24-89.6 15.36-17.92 2.56-35.84 7.68-53.76 12.8-20.48 5.12-35.84 17.92-46.08 38.4-2.56 5.12-5.12 7.68-5.12 10.24-2.56 2.56-5.12 5.12-7.68 5.12-5.12 0-12.8 2.56-17.92 2.56-15.36 2.56-28.16 10.24-38.4 23.04-5.12 5.12-7.68 10.24-12.8 15.36-2.56 2.56-5.12 2.56-7.68 0-2.56-2.56-2.56-5.12-2.56-7.68-5.12-10.24-12.8-15.36-23.04-15.36-10.24-2.56-20.48 0-28.16 2.56-17.92 2.56-33.28 5.12-51.2 7.68-20.48 2.56-43.52 7.68-64 10.24-15.36 2.56-25.6 10.24-35.84 23.04-10.24 10.24-17.92 23.04-28.16 30.72-17.92 17.92-30.72 38.4-40.96 58.88-10.24 23.04-17.92 46.08-25.6 69.12l-23.04 53.76c-10.24 10.24-12.8 20.48-15.36 30.72-2.56 10.24-2.56 20.48 0 28.16 2.56 12.8 7.68 25.6 12.8 38.4 2.56 5.12 0 7.68-2.56 10.24 0 2.56-2.56 2.56-2.56 5.12-7.68 10.24-7.68 20.48 2.56 33.28 7.68 10.24 17.92 15.36 28.16 17.92 17.92 5.12 38.4 5.12 58.88 5.12 17.92 0 35.84-2.56 53.76-5.12 30.72-5.12 64-12.8 94.72-23.04 10.24-2.56 20.48-5.12 30.72-10.24h5.12l33.28-10.24h2.56c2.56 0 2.56-2.56 5.12-2.56l84.48-30.72c15.36-5.12 33.28-10.24 51.2-12.8 30.72-7.68 61.44-17.92 92.16-28.16 28.16-10.24 53.76-17.92 84.48-23.04 7.68 0 15.36-2.56 23.04-2.56 5.12 0 7.68 0 5.12 5.12 0 20.48 2.56 38.4 12.8 53.76 15.36 23.04 35.84 35.84 64 38.4 25.6 2.56 48.64-2.56 71.68-7.68 35.84-10.24 66.56-25.6 97.28-46.08 17.92-12.8 35.84-28.16 48.64-46.08 2.56-2.56 2.56-5.12 2.56-7.68v-64c-2.56 15.36-7.68 30.72-17.92 43.52-2.56 2.56-5.12 2.56-5.12 0-5.12-10.24-10.24-15.36-20.48-20.48-2.56 0-2.56-2.56 0-2.56 5.12-10.24 10.24-20.48 12.8-33.28 5.12-28.16-7.68-46.08-35.84-53.76-15.36-2.56-28.16 0-43.52 2.56-7.68 2.56-12.8 0-17.92-2.56-2.56-2.56-2.56-5.12 0-5.12 5.12-2.56 12.8-5.12 20.48-7.68 23.04-5.12 43.52-2.56 64 2.56 20.48 7.68 35.84 17.92 43.52 40.96v-43.52c0-2.56-2.56-5.12-2.56-7.68-7.68-5.12-17.92-10.24-25.6-12.8-12.8-5.12-28.16-7.68-43.52-7.68-17.92 0-33.28 5.12-48.64 10.24-5.12 2.56-12.8 2.56-17.92 5.12h-5.12c-2.56-2.56 0-2.56 0-5.12 2.56-5.12 5.12-5.12 10.24-7.68 7.68 0 15.36-2.56 23.04-5.12 7.68-2.56 15.36-5.12 23.04-10.24 5.12-5.12 12.8-10.24 17.92-15.36 5.12-5.12 10.24-12.8 10.24-20.48l7.68-23.04c7.68-12.8 5.12-25.6-7.68-38.4-7.68-7.68-12.8-12.8-23.04-15.36-2.56-2.56-5.12-5.12-5.12-7.68 0-5.12 2.56-5.12 7.68-5.12 12.8-5.12 28.16-5.12 43.52-7.68 5.12-2.56 12.8-2.56 17.92-7.68 15.36-10.24 23.04-28.16 17.92-43.52-2.56-10.24-5.12-17.92-12.8-23.04-15.36-17.92-25.6-20.48-35.84-17.92-12.8 0-25.6 5.12-38.4 7.68h-2.56c-7.68 2.56-15.36 2.56-20.48-5.12-2.56-2.56-5.12-5.12-7.68-5.12-2.56 0-2.56 0-2.56-2.56h-20.48c-5.12 2.56-7.68 2.56-7.68 2.56zM716.8 340.48c12.8 0 23.04-5.12 28.16-17.92 7.68-12.8 12.8-25.6 25.6-33.28 5.12-2.56 7.68-7.68 12.8-10.24 0 0 2.56-2.56 2.56 0v2.56c-7.68 17.92-15.36 35.84-25.6 53.76-7.68 15.36-15.36 30.72-25.6 46.08-2.56 5.12-7.68 7.68-12.8 7.68-12.8 0-25.6 2.56-35.84 2.56h-2.56c-2.56 0-2.56-2.56-2.56-5.12 2.56-5.12 5.12-10.24 7.68-17.92 5.12-7.68 7.68-15.36 12.8-23.04 2.56-2.56 7.68-5.12 15.36-5.12z m-46.08 115.2c-5.12 0-10.24 2.56-17.92 2.56-5.12 0-5.12 0-2.56-5.12 5.12-10.24 10.24-17.92 12.8-28.16 5.12-12.8 12.8-17.92 25.6-17.92 7.68 0 17.92-2.56 25.6-2.56h7.68c2.56 0 2.56 0 2.56 5.12-7.68 17.92-15.36 35.84-25.6 51.2-5.12 10.24-10.24 17.92-15.36 25.6 0 2.56-2.56 2.56-5.12 2.56H665.6c-2.56 0-5.12 0-2.56-2.56 2.56-10.24 5.12-17.92 7.68-28.16 2.56 0 2.56-2.56 0-2.56z m-179.2-99.84c5.12-15.36 12.8-25.6 28.16-30.72 12.8-5.12 25.6-7.68 38.4-10.24 17.92-2.56 35.84-5.12 53.76-10.24 20.48-2.56 38.4-7.68 58.88-10.24 7.68 0 12.8-2.56 20.48-2.56 2.56 0 5.12 0 7.68 5.12 2.56 7.68 5.12 12.8 2.56 17.92 0 15.36-5.12 23.04-10.24 35.84-15.36 35.84-33.28 71.68-48.64 107.52-7.68 15.36-12.8 30.72-17.92 46.08v5.12c-2.56 7.68 0 7.68 7.68 7.68 28.16-5.12 53.76-15.36 79.36-23.04 7.68-2.56 15.36-5.12 25.6-5.12 5.12 0 5.12 0 2.56 5.12-2.56 7.68-10.24 12.8-15.36 17.92-17.92 15.36-38.4 23.04-58.88 30.72-20.48 7.68-40.96 15.36-64 23.04-2.56 0-5.12 2.56-7.68 2.56-10.24 0-15.36-2.56-17.92-10.24-5.12-12.8-7.68-25.6-10.24-38.4-2.56-10.24-7.68-23.04-7.68-33.28 0-12.8 5.12-23.04 10.24-35.84 15.36-30.72 30.72-61.44 43.52-92.16 2.56-5.12 2.56-7.68 2.56-12.8 0-2.56 0-2.56-2.56-2.56-25.6 5.12-53.76 10.24-79.36 15.36-12.8 2.56-23.04 5.12-35.84 7.68-5.12-5.12-5.12-5.12-5.12-10.24zM391.68 435.2c10.24-12.8 23.04-25.6 33.28-40.96 5.12-7.68 12.8-10.24 20.48-12.8 20.48-5.12 43.52-7.68 64-10.24 12.8-2.56 23.04-2.56 35.84-5.12h10.24c5.12 2.56 5.12 7.68 5.12 10.24 2.56 23.04 0 46.08-7.68 69.12-10.24 30.72-20.48 58.88-30.72 89.6-2.56 5.12-2.56 10.24-5.12 12.8-2.56 5.12-7.68 7.68-12.8 10.24-5.12 0-10.24 2.56-15.36 5.12-5.12 2.56-5.12 5.12-5.12 10.24 2.56 7.68 5.12 12.8 10.24 17.92 2.56 5.12 5.12 7.68 7.68 12.8 2.56 5.12 2.56 7.68-5.12 10.24l-23.04 7.68c-5.12 2.56-10.24 2.56-15.36 2.56-5.12 2.56-7.68 0-10.24-2.56-2.56-2.56-5.12-2.56-7.68 0-5.12 10.24-15.36 12.8-25.6 15.36-20.48 5.12-40.96 12.8-61.44 17.92-5.12 2.56-10.24 2.56-15.36 2.56-2.56 0-5.12 0-5.12-5.12-2.56-15.36-5.12-30.72-7.68-48.64 0-5.12 0-12.8 2.56-17.92 10.24-25.6 17.92-48.64 28.16-74.24 2.56-10.24 5.12-20.48 10.24-28.16 2.56-5.12 5.12-12.8 10.24-15.36-2.56-10.24 7.68-23.04 15.36-33.28zM76.8 693.76c-5.12-15.36-5.12-28.16 0-43.52 15.36-38.4 30.72-74.24 43.52-112.64 12.8-33.28 30.72-61.44 56.32-84.48 7.68-7.68 12.8-12.8 17.92-20.48 7.68-10.24 17.92-15.36 28.16-15.36 17.92-2.56 35.84-7.68 53.76-10.24 23.04-2.56 46.08-7.68 69.12-10.24 5.12 0 5.12 0 7.68 5.12 2.56 12.8 7.68 23.04 7.68 35.84 0 5.12 0 12.8-2.56 17.92-5.12 12.8-10.24 28.16-12.8 40.96-2.56 7.68-5.12 17.92-10.24 25.6-10.24 25.6-17.92 51.2-28.16 76.8-2.56 5.12-5.12 7.68-12.8 10.24-7.68 0-12.8 2.56-20.48 2.56-7.68 2.56-10.24 5.12-5.12 12.8 5.12 10.24 12.8 20.48 17.92 28.16 5.12 10.24 5.12 10.24-5.12 15.36-12.8 5.12-28.16 7.68-43.52 12.8-2.56 0-5.12 2.56-7.68 2.56-7.68 2.56-7.68 2.56-10.24-5.12 0-2.56-2.56-2.56-2.56 0-7.68 12.8-20.48 15.36-33.28 17.92-25.6 7.68-48.64 15.36-74.24 23.04-7.68 2.56-15.36 5.12-23.04 5.12-2.56 0-5.12 0-5.12-2.56 0-5.12-2.56-15.36-5.12-28.16z m885.76-89.6c5.12 5.12 12.8 7.68 17.92 12.8 2.56 2.56 2.56 5.12 0 7.68-15.36 23.04-35.84 40.96-61.44 53.76-7.68 5.12-15.36 7.68-23.04 10.24-5.12 2.56-12.8 2.56-17.92-2.56 2.56 5.12 5.12 7.68 5.12 12.8 0 2.56 0 2.56-2.56 5.12-17.92 5.12-33.28 10.24-51.2 12.8-10.24 2.56-20.48 2.56-30.72 2.56-17.92 0-33.28-5.12-46.08-15.36-12.8-10.24-20.48-23.04-20.48-38.4-2.56-30.72 5.12-56.32 23.04-81.92l2.56-2.56c5.12-5.12 7.68-5.12 12.8 0 2.56 2.56 0 2.56 0 5.12-5.12 7.68-7.68 15.36-12.8 25.6s-7.68 20.48-10.24 33.28c0 23.04 12.8 33.28 28.16 38.4 15.36 5.12 30.72 5.12 46.08 0 12.8-2.56 28.16-7.68 40.96-10.24h5.12c7.68-2.56 12.8-10.24 23.04-12.8 5.12 0 7.68-2.56 12.8-2.56 12.8-2.56 20.48-10.24 25.6-20.48 5.12-7.68 10.24-15.36 17.92-20.48 5.12-2.56 10.24-7.68 15.36-12.8-2.56 0-2.56 0 0 0z m-69.12-43.52c10.24 0 20.48 2.56 28.16 12.8 2.56 5.12 5.12 5.12 10.24 2.56l23.04-7.68c2.56 0 2.56-2.56 5.12 0v5.12c-2.56 10.24-10.24 20.48-15.36 28.16s-15.36 15.36-23.04 23.04c-2.56 2.56-5.12 2.56-10.24 2.56s-10.24 0-12.8 5.12c-12.8 12.8-30.72 17.92-48.64 20.48-5.12 0-7.68 2.56-7.68 7.68-2.56 10.24-10.24 17.92-23.04 17.92h-15.36c-5.12 0-12.8 0-20.48-2.56-5.12-2.56-10.24-5.12-12.8-10.24-2.56-2.56-2.56-5.12 2.56-5.12 12.8-7.68 28.16-15.36 40.96-25.6 5.12-2.56 7.68-7.68 7.68-15.36s5.12-15.36 10.24-20.48l2.56-2.56c7.68-10.24 7.68-10.24-2.56-17.92-5.12-2.56-5.12-5.12-5.12-10.24 5.12-25.6 28.16-38.4 51.2-25.6 2.56 0 2.56 2.56 2.56 5.12v10.24c0 2.56 0 5.12 5.12 5.12-2.56-2.56 2.56-2.56 7.68-2.56z m-15.36-43.52c2.56 0 2.56 0 0 0-10.24 7.68-15.36 15.36-25.6 15.36-5.12 0-10.24 2.56-12.8 2.56-10.24 2.56-15.36 7.68-20.48 17.92 0 0 0 2.56-2.56 2.56-2.56 7.68-7.68 12.8-15.36 17.92-5.12 5.12-12.8 10.24-17.92 15.36 0 0-2.56 2.56-5.12 0-5.12-5.12-12.8-7.68-15.36-12.8-2.56-2.56-2.56-5.12 0-10.24 17.92-28.16 43.52-46.08 74.24-61.44 5.12-2.56 10.24-5.12 17.92-5.12 7.68 0 20.48 10.24 23.04 17.92z m-5.12-266.24h5.12c0 2.56 0 2.56-2.56 5.12s-2.56 5.12-5.12 10.24c0 2.56-2.56 2.56-2.56 5.12s2.56 0 5.12 0c12.8 0 28.16-5.12 40.96-7.68 15.36-2.56 30.72-7.68 48.64-7.68 5.12 0 7.68 0 10.24 5.12 2.56 5.12 5.12 10.24 5.12 15.36 0 5.12-2.56 10.24-5.12 12.8-7.68 5.12-15.36 5.12-23.04 7.68l-76.8 15.36c-5.12 0-12.8 2.56-17.92 2.56-5.12 0-7.68 2.56-10.24 7.68-10.24 17.92-20.48 35.84-28.16 53.76v2.56h2.56c2.56 0 2.56-2.56 5.12-5.12 5.12-12.8 15.36-25.6 17.92-38.4 0-2.56 2.56-2.56 5.12-2.56 10.24 0 17.92-2.56 28.16-2.56h2.56c2.56 0 7.68-2.56 10.24 0 5.12 5.12 7.68 10.24 5.12 17.92 0 5.12-5.12 10.24-7.68 17.92 5.12 0 10.24 0 15.36-2.56 10.24-2.56 17.92 0 25.6 7.68 2.56 5.12 5.12 7.68 5.12 12.8 0 2.56-2.56 2.56-2.56 5.12-7.68 2.56-15.36 5.12-23.04 5.12-7.68 0-17.92 2.56-25.6 5.12-5.12 0-10.24 5.12-10.24 10.24-2.56 2.56-2.56 7.68-5.12 12.8 7.68 0 15.36-2.56 23.04-2.56 10.24-2.56 20.48-2.56 33.28-5.12 2.56 0 5.12 0 2.56 2.56-2.56 7.68-7.68 12.8-12.8 17.92-10.24 7.68-23.04 12.8-35.84 15.36-7.68 0-12.8 2.56-20.48 5.12-5.12 2.56-7.68 5.12-7.68 7.68l-7.68 15.36c-5.12 12.8-15.36 20.48-28.16 25.6-5.12 2.56-10.24 5.12-12.8 10.24-5.12 10.24-12.8 17.92-20.48 25.6-7.68 7.68-15.36 15.36-25.6 23.04 10.24-2.56 15.36-2.56 25.6-5.12-5.12 7.68-10.24 12.8-15.36 20.48-7.68 12.8-20.48 23.04-35.84 28.16h12.8c2.56 0 2.56 0 2.56 2.56-2.56 7.68-7.68 12.8-17.92 15.36-25.6 7.68-48.64 12.8-74.24 15.36-25.6 5.12-51.2 12.8-76.8 23.04-23.04 7.68-48.64 15.36-71.68 20.48-33.28 7.68-64 17.92-94.72 30.72-30.72 12.8-61.44 20.48-92.16 30.72-28.16 7.68-58.88 17.92-89.6 23.04-28.16-2.56-46.08 0-66.56 2.56-10.24 0-20.48 2.56-30.72 2.56-15.36 0-30.72-5.12-48.64-10.24 2.56-2.56 7.68-2.56 10.24-2.56 12.8 2.56 25.6 2.56 38.4 2.56s25.6-2.56 40.96-7.68l69.12-15.36c38.4-10.24 76.8-20.48 115.2-33.28s76.8-23.04 112.64-38.4c30.72-12.8 61.44-28.16 92.16-43.52 43.52-23.04 92.16-43.52 140.8-58.88 12.8-2.56 25.6-7.68 38.4-17.92 2.56-2.56 7.68-7.68 10.24-12.8-43.52 17.92-84.48 35.84-125.44 51.2 2.56-2.56 2.56-2.56 2.56-5.12 12.8-10.24 28.16-15.36 40.96-23.04 17.92-7.68 38.4-15.36 56.32-25.6 17.92-7.68 30.72-20.48 40.96-38.4 5.12-7.68 7.68-17.92 12.8-28.16 0 0 2.56-2.56 0-2.56h-5.12c-20.48 5.12-40.96 7.68-61.44 12.8-5.12 0-2.56 0-2.56-2.56 2.56-5.12 5.12-12.8 7.68-17.92 0-2.56 2.56-5.12 2.56-5.12 2.56-10.24 10.24-12.8 17.92-12.8 15.36-2.56 30.72-5.12 46.08-5.12 7.68 0 12.8-5.12 15.36-10.24 2.56-2.56 5.12-7.68 5.12-10.24-10.24 2.56-23.04 2.56-33.28 5.12s-20.48 2.56-33.28 5.12c5.12-10.24 7.68-17.92 12.8-28.16 17.92-35.84 33.28-71.68 51.2-107.52 2.56-2.56 2.56-5.12 5.12-7.68 7.68-15.36 20.48-20.48 35.84-23.04 10.24-2.56 23.04-2.56 33.28-5.12z" fill="" p-id="4667"></path><path d="M1006.08 573.44v64c0 2.56 0 5.12-2.56 7.68-12.8 17.92-30.72 33.28-48.64 46.08-30.72 20.48-61.44 35.84-97.28 46.08-23.04 7.68-48.64 10.24-71.68 7.68-28.16-2.56-48.64-15.36-64-38.4-10.24-17.92-12.8-35.84-12.8-53.76 0-5.12 0-7.68-5.12-5.12-7.68 0-15.36 2.56-23.04 2.56-28.16 5.12-56.32 12.8-84.48 23.04-30.72 10.24-61.44 20.48-92.16 28.16-17.92 5.12-33.28 7.68-51.2 12.8l-84.48 30.72c-2.56 0-2.56 0-5.12 2.56h-2.56l7.68-2.56c7.68-2.56 12.8-5.12 20.48-7.68 30.72-10.24 58.88-23.04 92.16-30.72 40.96-10.24 79.36-20.48 117.76-35.84 33.28-12.8 66.56-17.92 102.4-25.6 2.56 0 5.12 0 5.12 2.56v20.48c2.56 25.6 25.6 61.44 58.88 71.68 23.04 7.68 48.64 5.12 71.68 0 38.4-7.68 74.24-23.04 107.52-43.52 23.04-15.36 43.52-33.28 61.44-56.32 2.56-2.56 2.56-2.56 2.56-5.12V563.2c-2.56 5.12-2.56 7.68-2.56 10.24zM888.32 227.84c2.56 0 7.68 2.56 7.68 5.12 5.12 7.68 12.8 7.68 23.04 5.12h2.56c12.8-2.56 25.6-7.68 38.4-7.68 10.24-2.56 20.48 2.56 28.16 10.24 7.68 7.68 10.24 15.36 12.8 23.04 5.12 17.92-2.56 35.84-17.92 43.52-5.12 2.56-10.24 5.12-17.92 7.68-15.36 2.56-28.16 5.12-43.52 7.68-2.56 0-7.68 2.56-7.68 5.12 0 5.12 2.56 7.68 5.12 7.68l23.04 15.36c12.8 12.8 15.36 25.6 7.68 38.4-5.12 7.68-7.68 15.36-7.68 23.04 0 7.68-5.12 15.36-10.24 20.48-5.12 5.12-12.8 10.24-17.92 15.36-5.12 5.12-12.8 7.68-23.04 10.24-7.68 2.56-15.36 2.56-23.04 5.12-5.12 0-7.68 2.56-10.24 7.68 0 2.56-2.56 2.56 0 5.12 0 2.56 2.56 0 5.12 0 5.12-2.56 12.8-2.56 17.92-5.12 15.36-5.12 33.28-10.24 48.64-10.24 15.36 0 28.16 2.56 43.52 7.68 10.24 2.56 17.92 7.68 25.6 12.8 2.56 2.56 2.56 2.56 2.56 7.68v0c0-2.56-2.56-2.56-2.56-5.12-5.12-5.12-10.24-7.68-17.92-10.24-30.72-12.8-61.44-15.36-94.72-5.12l-30.72 7.68c-2.56 0-2.56 2.56-5.12 0v-2.56l7.68-7.68c5.12 0 7.68-2.56 12.8-2.56 10.24-2.56 20.48-2.56 28.16-10.24 7.68-5.12 15.36-12.8 23.04-20.48 5.12-5.12 7.68-10.24 10.24-17.92 2.56-10.24 5.12-17.92 10.24-25.6 5.12-10.24 5.12-20.48-2.56-30.72-7.68-10.24-17.92-20.48-30.72-25.6-2.56-2.56-2.56-5.12-2.56-7.68 0-2.56 2.56-2.56 2.56-2.56 2.56 0 2.56 0 5.12-2.56 12.8-2.56 28.16-5.12 40.96-7.68 15.36-2.56 28.16-10.24 33.28-25.6 7.68-17.92 2.56-35.84-7.68-48.64s-25.6-15.36-40.96-12.8c-15.36 2.56-28.16 7.68-43.52 7.68h-5.12c-5.12-5.12-10.24-10.24-17.92-12.8 10.24 7.68 12.8 7.68 15.36 7.68zM325.12 760.32c-10.24 2.56-20.48 5.12-30.72 10.24-30.72 10.24-61.44 17.92-94.72 23.04-17.92 2.56-35.84 5.12-53.76 5.12-20.48 0-38.4 0-58.88-5.12-10.24-2.56-20.48-7.68-28.16-15.36-10.24-12.8-10.24-23.04-2.56-33.28 0-2.56 2.56-2.56 2.56-5.12 2.56-2.56 2.56-7.68 2.56-10.24-5.12-12.8-10.24-25.6-12.8-38.4-2.56-10.24-2.56-20.48 0-28.16 2.56-12.8 5.12-23.04 10.24-30.72l23.04-53.76c7.68-23.04 15.36-46.08 25.6-69.12 10.24-23.04 23.04-43.52 40.96-58.88 10.24-10.24 20.48-20.48 28.16-30.72 10.24-10.24 20.48-17.92 35.84-23.04 20.48-5.12 40.96-7.68 64-10.24 17.92-2.56 33.28-5.12 51.2-7.68 10.24-2.56 20.48-2.56 28.16-2.56 10.24 2.56 17.92 7.68 23.04 15.36 0 2.56 2.56 5.12 2.56 7.68 2.56 5.12 5.12 5.12 7.68 0 5.12-5.12 10.24-10.24 12.8-15.36 10.24-12.8 20.48-20.48 38.4-23.04 5.12 0 12.8-2.56 17.92-2.56 5.12 0 7.68-2.56 7.68-5.12 2.56-5.12 5.12-7.68 5.12-10.24 7.68-20.48 25.6-30.72 46.08-38.4 17.92-5.12 35.84-7.68 53.76-12.8 30.72-5.12 61.44-10.24 89.6-15.36 12.8-2.56 23.04-5.12 35.84-5.12 10.24 0 15.36 2.56 17.92 12.8 2.56 5.12 5.12 10.24 5.12 15.36 0 2.56 0 5.12 2.56 5.12s2.56-2.56 5.12-2.56l2.56-2.56c2.56-5.12 7.68-10.24 12.8-15.36 10.24-12.8 20.48-23.04 35.84-25.6 5.12 0 10.24-2.56 12.8-7.68 7.68-5.12 15.36-10.24 23.04-12.8 17.92-7.68 30.72-10.24 46.08-10.24 2.56 0 2.56 0 2.56-2.56h-2.56c-10.24 0-20.48 2.56-28.16 5.12-15.36 2.56-28.16 7.68-40.96 17.92-5.12 2.56-10.24 5.12-12.8 5.12-7.68 2.56-15.36 7.68-23.04 12.8-5.12 5.12-10.24 10.24-15.36 17.92-2.56 5.12-7.68 10.24-10.24 15.36l-2.56 2.56c-2.56 0 0-2.56 0-2.56-2.56-7.68-2.56-12.8-5.12-17.92-2.56-7.68-10.24-12.8-17.92-12.8-5.12 0-12.8 0-17.92 2.56-33.28 5.12-64 10.24-97.28 17.92-23.04 5.12-46.08 7.68-69.12 15.36-17.92 5.12-33.28 15.36-40.96 33.28-2.56 5.12-5.12 10.24-7.68 12.8-2.56 5.12-5.12 7.68-10.24 7.68s-7.68 0-12.8 2.56c-17.92 2.56-33.28 10.24-43.52 25.6-5.12 5.12-10.24 10.24-12.8 17.92-2.56 2.56-2.56 2.56-5.12 0 0-2.56-2.56-5.12-2.56-7.68-5.12-10.24-12.8-15.36-23.04-15.36-12.8-2.56-23.04 0-35.84 2.56l-99.84 15.36c-20.48 2.56-35.84 10.24-48.64 25.6-7.68 10.24-15.36 17.92-25.6 28.16-17.92 17.92-33.28 40.96-43.52 64-10.24 23.04-17.92 46.08-28.16 71.68-7.68 23.04-17.92 43.52-25.6 66.56-5.12 15.36-7.68 33.28-2.56 48.64 2.56 10.24 5.12 20.48 10.24 28.16 2.56 5.12 2.56 10.24-2.56 15.36-10.24 12.8-7.68 25.6 0 35.84 5.12 5.12 10.24 10.24 17.92 12.8 10.24 5.12 23.04 7.68 35.84 7.68 28.16 2.56 58.88 0 87.04-5.12 38.4-7.68 76.8-17.92 115.2-28.16 2.56 0 2.56 0 5.12-2.56l10.24-2.56c-2.56-7.68-5.12-7.68-5.12-5.12z" fill="" p-id="4668"></path><path d="M970.24 499.2c-20.48-10.24-40.96-10.24-61.44-7.68-10.24 0-20.48 2.56-28.16 7.68-2.56 0-2.56 0-2.56 2.56s2.56 2.56 2.56 2.56c5.12 2.56 10.24 2.56 15.36 2.56 10.24-2.56 20.48-5.12 33.28-5.12 15.36 2.56 28.16 5.12 38.4 15.36 5.12 7.68 7.68 15.36 10.24 23.04 2.56 15.36-5.12 30.72-12.8 46.08-2.56 5.12-2.56 7.68 2.56 10.24 5.12 5.12 10.24 10.24 12.8 15.36 2.56 5.12 2.56 5.12 7.68 0 7.68-10.24 12.8-25.6 15.36-38.4 0-2.56 0-5.12 2.56-5.12v-25.6-2.56-2.56c-5.12-17.92-17.92-30.72-35.84-38.4zM1006.08 540.16v0z" fill="#FE6600" p-id="4669"></path><path d="M1003.52 573.44c-2.56 12.8-7.68 25.6-15.36 38.4-2.56 5.12-5.12 5.12-7.68 0-2.56-5.12-7.68-12.8-12.8-15.36-5.12-2.56-5.12-5.12-2.56-10.24 7.68-15.36 12.8-28.16 12.8-46.08 0-7.68-2.56-15.36-10.24-23.04-10.24-10.24-23.04-15.36-38.4-15.36-10.24 0-23.04 2.56-33.28 5.12-5.12 0-10.24 2.56-15.36-2.56-2.56 0-2.56-2.56-2.56-2.56 0-2.56 2.56-2.56 2.56-2.56 10.24-5.12 17.92-7.68 28.16-7.68 20.48-2.56 40.96 0 61.44 7.68 15.36 7.68 28.16 20.48 33.28 38.4v-2.56c-7.68-20.48-23.04-33.28-43.52-40.96-20.48-7.68-43.52-7.68-64-2.56-7.68 2.56-12.8 2.56-20.48 7.68-2.56 2.56-5.12 2.56 0 5.12 5.12 5.12 12.8 5.12 17.92 2.56 15.36-2.56 28.16-5.12 43.52-2.56 28.16 5.12 40.96 25.6 35.84 53.76-2.56 12.8-7.68 23.04-12.8 33.28v2.56c10.24 5.12 15.36 12.8 20.48 20.48 2.56 2.56 2.56 2.56 5.12 0 10.24-12.8 15.36-25.6 17.92-40.96 2.56-2.56 2.56-5.12 2.56-5.12-2.56 2.56-2.56 5.12-2.56 5.12zM1006.08 568.32v0zM1006.08 540.16v-5.12 5.12z" fill="#FE6600" p-id="4670"></path><path d="M801.28 276.48c-2.56 2.56-2.56 5.12-5.12 7.68-17.92 35.84-33.28 71.68-51.2 107.52-5.12 7.68-7.68 17.92-12.8 28.16 12.8-2.56 23.04-2.56 33.28-5.12s20.48-2.56 33.28-5.12c0 5.12-2.56 7.68-5.12 10.24-2.56 5.12-7.68 10.24-15.36 10.24-15.36 2.56-30.72 5.12-46.08 5.12-7.68 0-15.36 2.56-17.92 12.8 0 2.56-2.56 5.12-2.56 5.12-2.56 5.12-5.12 10.24-7.68 17.92 0 2.56-2.56 5.12 2.56 2.56 20.48-5.12 40.96-10.24 61.44-12.8h5.12v2.56c-2.56 10.24-7.68 17.92-12.8 28.16-7.68 17.92-23.04 30.72-40.96 38.4-17.92 10.24-38.4 15.36-56.32 25.6-15.36 7.68-28.16 12.8-40.96 23.04-2.56 2.56-2.56 2.56-2.56 5.12 40.96-17.92 84.48-33.28 125.44-51.2-2.56 5.12-7.68 10.24-10.24 12.8-10.24 10.24-23.04 15.36-38.4 17.92-48.64 12.8-94.72 33.28-140.8 58.88-30.72 15.36-61.44 30.72-92.16 43.52-35.84 15.36-74.24 25.6-112.64 38.4-38.4 12.8-76.8 23.04-115.2 33.28l-69.12 15.36c-12.8 2.56-25.6 5.12-40.96 7.68-12.8 0-25.6 0-38.4-2.56-2.56 0-7.68 0-10.24 2.56 17.92 7.68 33.28 12.8 51.2 12.8 10.24 0 20.48 0 30.72-2.56 20.48-2.56 38.4-5.12 58.88-10.24 30.72-7.68 58.88-15.36 89.6-23.04 30.72-10.24 61.44-17.92 92.16-30.72 30.72-12.8 64-23.04 94.72-30.72 25.6-5.12 48.64-12.8 71.68-20.48 25.6-10.24 51.2-17.92 76.8-23.04 25.6-5.12 48.64-10.24 74.24-15.36 10.24-2.56 15.36-7.68 17.92-15.36 0-2.56 0-2.56-2.56-2.56h-12.8c15.36-7.68 25.6-15.36 35.84-28.16 5.12-7.68 10.24-12.8 15.36-20.48-10.24 2.56-15.36 2.56-25.6 5.12 10.24-7.68 15.36-15.36 25.6-23.04 7.68-7.68 15.36-15.36 20.48-25.6 2.56-5.12 7.68-10.24 12.8-10.24 12.8-5.12 23.04-15.36 28.16-25.6l7.68-15.36c2.56-5.12 5.12-7.68 7.68-7.68 7.68-2.56 12.8-2.56 20.48-5.12 12.8-2.56 25.6-7.68 35.84-15.36 5.12-5.12 12.8-10.24 12.8-17.92 0-2.56 0-2.56-2.56-2.56-10.24 2.56-20.48 5.12-33.28 5.12-7.68 0-15.36 2.56-23.04 2.56 2.56-5.12 2.56-7.68 5.12-12.8s5.12-7.68 10.24-10.24c7.68-2.56 17.92-2.56 25.6-5.12 7.68 0 15.36-2.56 23.04-5.12 2.56 0 2.56-2.56 2.56-5.12 0-5.12 0-10.24-5.12-12.8-7.68-7.68-15.36-7.68-25.6-7.68-5.12 0-10.24 2.56-15.36 2.56 2.56-5.12 5.12-10.24 7.68-17.92 0-7.68-2.56-12.8-5.12-17.92-2.56-2.56-7.68 0-10.24 0h-2.56c-10.24 0-17.92 2.56-28.16 2.56-2.56 0-2.56 0-5.12 2.56-5.12 12.8-12.8 25.6-17.92 38.4 0 2.56-2.56 2.56-5.12 5.12h-2.56v-2.56c7.68-17.92 17.92-35.84 28.16-53.76 2.56-5.12 5.12-5.12 10.24-7.68 5.12 0 12.8-2.56 17.92-2.56l76.8-15.36c7.68-2.56 15.36-2.56 23.04-7.68 5.12-2.56 7.68-5.12 5.12-12.8 0-5.12-2.56-10.24-5.12-15.36-2.56-5.12-5.12-5.12-10.24-5.12-15.36 0-30.72 5.12-48.64 7.68-12.8 2.56-28.16 5.12-40.96 7.68h-5.12c0-2.56 0-2.56 2.56-5.12s5.12-5.12 5.12-10.24c0-2.56 2.56-2.56 2.56-5.12s-2.56 0-5.12 0c-12.8 0-25.6 2.56-38.4 2.56-5.12 10.24-17.92 17.92-25.6 30.72z" fill="#FECC00" p-id="4671"></path><path d="M494.08 360.96c12.8-2.56 23.04-5.12 35.84-7.68 25.6-5.12 53.76-10.24 79.36-15.36 2.56 0 2.56 0 2.56 2.56 0 5.12-2.56 7.68-2.56 12.8-12.8 30.72-28.16 61.44-43.52 92.16-5.12 10.24-10.24 23.04-10.24 35.84 0 12.8 5.12 23.04 7.68 33.28 2.56 12.8 5.12 25.6 10.24 38.4 2.56 10.24 10.24 12.8 17.92 10.24 2.56 0 5.12 0 7.68-2.56 20.48-5.12 43.52-15.36 64-23.04 20.48-7.68 40.96-17.92 58.88-30.72 5.12-5.12 12.8-10.24 15.36-17.92 2.56-5.12 2.56-5.12-2.56-5.12-7.68 0-17.92 2.56-25.6 5.12-25.6 7.68-51.2 17.92-79.36 23.04-7.68 2.56-10.24 2.56-7.68-7.68v-5.12c5.12-15.36 10.24-30.72 17.92-46.08 15.36-35.84 33.28-71.68 48.64-107.52 5.12-10.24 10.24-20.48 10.24-35.84 0-5.12-2.56-10.24-2.56-17.92 0-2.56-2.56-5.12-7.68-5.12-7.68 2.56-12.8 2.56-20.48 2.56-20.48 2.56-38.4 7.68-58.88 10.24-17.92 2.56-35.84 7.68-53.76 10.24-12.8 2.56-25.6 5.12-38.4 10.24-15.36 5.12-23.04 15.36-28.16 30.72 2.56 10.24 2.56 10.24 5.12 10.24z" fill="#FECC00" p-id="4672"></path><path d="M353.28 517.12c-7.68 25.6-17.92 48.64-28.16 74.24-2.56 5.12-2.56 10.24-2.56 17.92 2.56 15.36 5.12 30.72 7.68 48.64 0 5.12 2.56 5.12 5.12 5.12 5.12 0 10.24-2.56 15.36-2.56 20.48-5.12 40.96-12.8 61.44-17.92 10.24-2.56 20.48-5.12 25.6-15.36 2.56-2.56 5.12-2.56 7.68 0 2.56 2.56 5.12 5.12 10.24 2.56s10.24-2.56 15.36-2.56c7.68-2.56 15.36-2.56 23.04-7.68 5.12-2.56 5.12-2.56 5.12-10.24-2.56-5.12-5.12-7.68-7.68-12.8-5.12-5.12-7.68-10.24-10.24-17.92-2.56-5.12 0-7.68 5.12-10.24 5.12-2.56 10.24-5.12 15.36-5.12 5.12 0 10.24-5.12 12.8-10.24 2.56-5.12 2.56-10.24 5.12-12.8 10.24-30.72 20.48-61.44 30.72-89.6 7.68-23.04 10.24-46.08 7.68-69.12 0-5.12 0-10.24-5.12-10.24 0 2.56-2.56 2.56-5.12 2.56-5.12 2.56-10.24 2.56-15.36 2.56-7.68 2.56-15.36 5.12-23.04 10.24-10.24 7.68-23.04 15.36-35.84 23.04-15.36 10.24-28.16 17.92-43.52 28.16l-2.56 2.56c15.36-2.56 33.28-7.68 48.64-10.24 12.8-2.56 25.6-5.12 38.4-5.12 7.68 0 7.68 0 5.12 7.68-5.12 17.92-12.8 35.84-17.92 53.76-7.68 23.04-17.92 46.08-25.6 69.12-5.12 12.8-12.8 23.04-28.16 25.6-23.04 5.12-43.52 10.24-66.56 15.36-5.12 0-7.68 2.56-12.8 2.56-2.56 0-5.12 0-2.56-5.12 2.56-17.92 10.24-35.84 17.92-51.2 10.24-28.16 20.48-53.76 28.16-81.92H409.6c0-5.12-2.56-2.56-5.12 0-7.68 5.12-17.92 10.24-25.6 17.92 0 0-2.56 0-2.56 2.56-5.12 5.12-5.12 2.56-7.68-2.56-5.12 5.12-7.68 10.24-10.24 15.36 0 5.12-2.56 15.36-5.12 23.04z" fill="#FECC00" p-id="4673"></path><path d="M81.92 678.4c17.92-10.24 33.28-23.04 48.64-35.84l2.56-2.56c12.8-38.4 28.16-74.24 40.96-110.08 5.12-10.24 7.68-23.04 12.8-33.28 2.56-7.68 7.68-15.36 17.92-15.36 15.36-5.12 33.28-5.12 48.64-10.24 15.36-2.56 33.28-7.68 48.64-10.24 5.12 0 10.24 0 15.36-2.56 2.56 0 2.56 0 2.56 2.56-5.12 15.36-12.8 33.28-17.92 48.64-2.56 7.68-5.12 12.8-7.68 20.48v5.12s2.56 0 2.56-2.56c2.56-10.24 10.24-15.36 20.48-20.48 5.12-2.56 10.24-5.12 17.92-7.68 0 0 2.56 0 2.56-2.56 2.56-5.12 5.12-2.56 10.24-2.56 5.12-12.8 7.68-28.16 12.8-40.96 2.56-5.12 2.56-12.8 2.56-17.92 0-12.8-5.12-25.6-7.68-35.84 0-5.12-2.56-5.12-7.68-5.12-23.04 0-46.08 5.12-69.12 10.24-17.92 2.56-35.84 5.12-53.76 10.24-12.8 0-20.48 5.12-28.16 15.36-5.12 7.68-12.8 15.36-17.92 20.48-25.6 23.04-43.52 51.2-56.32 84.48-12.8 38.4-28.16 76.8-43.52 112.64-5.12 15.36-5.12 28.16 0 43.52 2.56-2.56 0-7.68 2.56-10.24-2.56-5.12 0-7.68 0-7.68z" fill="#FE0000" p-id="4674"></path><path d="M87.04 724.48c0 2.56 2.56 2.56 5.12 2.56 7.68-2.56 15.36-2.56 23.04-5.12 25.6-7.68 48.64-15.36 74.24-23.04 12.8-2.56 25.6-7.68 33.28-17.92 2.56-2.56 2.56 0 2.56 0 5.12 5.12 5.12 5.12 10.24 5.12 2.56 0 5.12-2.56 7.68-2.56 15.36-2.56 28.16-5.12 43.52-12.8 10.24-5.12 10.24-5.12 5.12-15.36-5.12-10.24-12.8-17.92-17.92-28.16-5.12-7.68-2.56-10.24 5.12-12.8 5.12-2.56 12.8-2.56 20.48-2.56 5.12 0 10.24-5.12 12.8-10.24 10.24-25.6 17.92-51.2 28.16-76.8 2.56-7.68 7.68-17.92 10.24-25.6-7.68 0-12.8 5.12-17.92 7.68-7.68 2.56-17.92 7.68-23.04 15.36-2.56 2.56-5.12 5.12-5.12 7.68 0 2.56-2.56 5.12-2.56 2.56-2.56 0-2.56-2.56-2.56-2.56-5.12 5.12-5.12 10.24-7.68 15.36-5.12 15.36-10.24 33.28-17.92 48.64-2.56 2.56-2.56 7.68-5.12 10.24-5.12 12.8-15.36 20.48-28.16 23.04-28.16 7.68-53.76 15.36-81.92 20.48-7.68 0-12.8 2.56-20.48 2.56-2.56 0-5.12 0-5.12-5.12 0-2.56 2.56-5.12 2.56-7.68l-38.4 30.72c-2.56 2.56-5.12 5.12-7.68 5.12-5.12 2.56-7.68 7.68-7.68 12.8 0 2.56 0 5.12-2.56 5.12 0 15.36 2.56 25.6 7.68 33.28z" fill="#FECC00" p-id="4675"></path><path d="M340.48 501.76l-2.56 2.56c-5.12 2.56-10.24 5.12-17.92 7.68-10.24 5.12-17.92 10.24-20.48 20.48 0 0 0 2.56-2.56 2.56s0-2.56 0-5.12c0 2.56 0 2.56 2.56 2.56s2.56-2.56 2.56-2.56c0-2.56 2.56-5.12 5.12-7.68 5.12-7.68 15.36-10.24 23.04-15.36 7.68-2.56 10.24-10.24 17.92-7.68-2.56 0-5.12 0-7.68 2.56zM79.36 688.64c0-5.12 2.56-10.24 7.68-12.8 2.56 0 5.12-2.56 7.68-5.12L133.12 640v-2.56l-2.56 2.56c-15.36 12.8-30.72 25.6-48.64 35.84-2.56 0-2.56 2.56-2.56 5.12-2.56 5.12 0 10.24-2.56 12.8 2.56 0 2.56-2.56 2.56-5.12z" fill="#FECC00" p-id="4676"></path><path d="M865.28 678.4c0-2.56-2.56-2.56 0-5.12h-5.12c-12.8 2.56-28.16 7.68-40.96 10.24-15.36 2.56-30.72 5.12-46.08 0-15.36-5.12-28.16-15.36-28.16-38.4 0-10.24 5.12-23.04 10.24-33.28 2.56-7.68 7.68-15.36 12.8-25.6 0-2.56 2.56-2.56 0-5.12-5.12-5.12-7.68-5.12-12.8 0l-2.56 2.56c-17.92 25.6-25.6 51.2-23.04 81.92 2.56 15.36 7.68 28.16 20.48 38.4 12.8 10.24 30.72 15.36 46.08 15.36 10.24 0 20.48 0 30.72-2.56 17.92-2.56 35.84-7.68 51.2-12.8 2.56 0 2.56-2.56 2.56-5.12-2.56-5.12-5.12-7.68-5.12-12.8-2.56 0-7.68-2.56-10.24-7.68z" fill="#FE6600" p-id="4677"></path><path d="M378.88 473.6c10.24-7.68 20.48-12.8 28.16-20.48 2.56-2.56 5.12-2.56 5.12 2.56 0 0 0 2.56 2.56 2.56 0-2.56 2.56-2.56 2.56-5.12 2.56-7.68 5.12-12.8 12.8-15.36 0-2.56 2.56-2.56 2.56-5.12 12.8-7.68 28.16-17.92 40.96-25.6 12.8-7.68 28.16-17.92 40.96-28.16 7.68-5.12 15.36-7.68 23.04-10.24 5.12 0 10.24 0 15.36-5.12h-10.24c-12.8 0-23.04 2.56-35.84 5.12-20.48 2.56-43.52 7.68-64 10.24-7.68 2.56-15.36 5.12-20.48 12.8-10.24 12.8-23.04 28.16-33.28 40.96-10.24 10.24-17.92 23.04-20.48 38.4 5.12 5.12 7.68 5.12 10.24 2.56z" fill="#FE0000" p-id="4678"></path><path d="M378.88 473.6s2.56 0 2.56-2.56c7.68-5.12 17.92-10.24 25.6-17.92 2.56-2.56 5.12-5.12 5.12 0h2.56s0-2.56-2.56-2.56c-2.56-2.56-2.56-2.56-5.12-2.56-7.68 12.8-17.92 17.92-28.16 25.6-2.56 0-5.12 2.56-7.68-2.56 2.56 7.68 2.56 7.68 7.68 2.56zM514.56 378.88c-12.8 10.24-25.6 17.92-40.96 28.16-12.8 7.68-25.6 17.92-40.96 25.6-2.56 0-2.56 2.56-2.56 5.12l2.56-2.56c15.36-10.24 28.16-17.92 43.52-28.16 12.8-7.68 23.04-15.36 35.84-23.04 7.68-5.12 12.8-10.24 23.04-10.24 5.12 0 10.24-2.56 15.36-2.56 2.56 0 5.12 0 5.12-2.56-5.12 2.56-10.24 2.56-15.36 5.12-10.24-2.56-17.92 0-25.6 5.12z" fill="#FE0000" p-id="4679"></path><path d="M837.12 506.88c-30.72 12.8-56.32 33.28-74.24 61.44-2.56 2.56-2.56 5.12 0 10.24 5.12 5.12 12.8 7.68 15.36 12.8 2.56 2.56 2.56 0 5.12 0 5.12-5.12 10.24-10.24 17.92-15.36 7.68-5.12 10.24-10.24 15.36-17.92 0 0 0-2.56 2.56-2.56 5.12-7.68 10.24-15.36 20.48-17.92 5.12 0 7.68-2.56 12.8-2.56 10.24-2.56 17.92-10.24 25.6-12.8v-2.56c-2.56-7.68-15.36-15.36-25.6-15.36-2.56-5.12-7.68 0-15.36 2.56zM680.96 389.12c0 2.56-2.56 5.12 2.56 5.12h2.56c12.8 0 25.6-2.56 35.84-2.56 5.12 0 10.24-2.56 12.8-7.68 10.24-15.36 17.92-30.72 25.6-46.08 10.24-17.92 17.92-35.84 25.6-53.76 0 0 2.56-2.56 0-2.56h-2.56c-5.12 2.56-10.24 5.12-12.8 10.24-10.24 10.24-17.92 23.04-25.6 33.28-5.12 12.8-15.36 17.92-28.16 17.92-7.68 0-12.8 2.56-15.36 7.68-5.12 7.68-7.68 15.36-12.8 23.04-2.56 2.56-5.12 10.24-7.68 15.36zM926.72 640c-5.12 10.24-15.36 17.92-25.6 20.48-5.12 0-7.68 2.56-12.8 2.56-7.68 2.56-15.36 10.24-23.04 12.8 0 5.12 2.56 7.68 5.12 10.24 2.56 2.56 5.12 2.56 5.12 5.12 5.12 2.56 12.8 5.12 17.92 2.56 7.68-2.56 15.36-7.68 23.04-10.24 25.6-12.8 46.08-30.72 61.44-53.76 2.56-2.56 2.56-5.12 0-7.68-5.12-5.12-12.8-7.68-17.92-12.8-2.56-2.56-2.56 0-2.56 0-5.12 5.12-10.24 10.24-15.36 12.8-5.12 2.56-10.24 10.24-15.36 17.92z" fill="#FECC00" p-id="4680"></path><path d="M872.96 686.08c-2.56-2.56-5.12-5.12-5.12-10.24-2.56 0 0 2.56 0 5.12 2.56 5.12 7.68 7.68 10.24 10.24l-5.12-5.12zM665.6 488.96c-2.56 2.56 0 5.12 2.56 2.56h12.8c2.56 0 5.12 0 5.12-2.56 5.12-7.68 10.24-17.92 15.36-25.6 7.68-17.92 17.92-33.28 25.6-51.2 2.56-2.56 0-5.12-2.56-5.12H716.8c-7.68 0-17.92 2.56-25.6 2.56-12.8 0-20.48 7.68-25.6 17.92-2.56 10.24-7.68 17.92-12.8 28.16-2.56 5.12-2.56 5.12 2.56 5.12s10.24 0 17.92-2.56c5.12 0 5.12 0 2.56 2.56-5.12 7.68-7.68 17.92-10.24 28.16z" fill="#FECC00" p-id="4681"></path><path d="M430.08 437.76s0 2.56 0 0c-7.68 5.12-10.24 7.68-12.8 12.8 0 2.56 0 5.12-2.56 5.12 0 7.68-2.56 15.36-5.12 23.04-10.24 30.72-23.04 61.44-35.84 92.16-2.56 5.12-2.56 10.24-5.12 15.36 0 2.56 0 2.56 2.56 2.56 10.24-2.56 23.04-5.12 33.28-7.68 15.36-2.56 30.72-7.68 46.08-10.24 12.8-2.56 20.48-10.24 25.6-20.48 10.24-28.16 23.04-58.88 33.28-87.04 5.12-12.8 7.68-23.04 12.8-35.84 0-5.12 0-5.12-5.12-5.12-12.8 0-25.6 2.56-38.4 5.12-15.36 2.56-30.72 7.68-46.08 10.24h-2.56c2.56 0 2.56 0 0 0 2.56 0 2.56 0 0 0z m10.24 30.72c0-2.56 2.56-5.12 7.68-5.12 12.8-2.56 23.04-5.12 35.84-7.68 2.56 0 2.56 0 2.56 2.56-5.12 17.92-12.8 35.84-20.48 53.76-2.56 7.68-5.12 17.92-10.24 25.6-2.56 7.68-7.68 12.8-15.36 12.8-10.24 2.56-20.48 5.12-33.28 7.68 2.56-10.24 7.68-17.92 10.24-28.16 10.24-20.48 17.92-40.96 23.04-61.44z" fill="" p-id="4682"></path><path d="M435.2 437.76c15.36-2.56 30.72-7.68 46.08-10.24 12.8-2.56 25.6-5.12 38.4-5.12 5.12 0 5.12 0 5.12 5.12-2.56 12.8-7.68 25.6-12.8 35.84-10.24 30.72-23.04 58.88-33.28 87.04-5.12 12.8-12.8 17.92-25.6 20.48-15.36 2.56-30.72 7.68-46.08 10.24-10.24 2.56-20.48 5.12-33.28 7.68-2.56 0-5.12 0-2.56-2.56 0-5.12 2.56-10.24 5.12-15.36 10.24-30.72 23.04-61.44 35.84-92.16 2.56-7.68 5.12-12.8 5.12-23.04-7.68 30.72-20.48 56.32-30.72 84.48-5.12 17.92-15.36 33.28-17.92 51.2 0 5.12 0 5.12 2.56 5.12 5.12 0 7.68-2.56 12.8-2.56 23.04-5.12 43.52-12.8 66.56-15.36 15.36-2.56 23.04-10.24 28.16-25.6 7.68-23.04 17.92-46.08 25.6-69.12 7.68-17.92 12.8-35.84 17.92-53.76 2.56-7.68 2.56-7.68-5.12-7.68-12.8 0-25.6 2.56-38.4 5.12-15.36 2.56-33.28 7.68-48.64 10.24h5.12z" fill="" p-id="4683"></path><path d="M419.84 450.56c2.56-5.12 5.12-10.24 10.24-12.8 0 0 2.56 0 2.56-2.56-7.68 5.12-12.8 7.68-12.8 15.36-2.56 2.56-2.56 5.12-2.56 5.12 2.56 0 2.56-2.56 2.56-5.12zM417.28 458.24z" fill="" p-id="4684"></path><path d="M309.76 488.96l7.68-23.04c2.56-5.12 0-5.12-2.56-5.12-17.92 2.56-35.84 5.12-53.76 10.24-12.8 2.56-25.6 5.12-40.96 7.68-5.12 0-12.8 2.56-17.92 5.12-7.68 2.56-10.24 7.68-12.8 15.36-5.12 17.92-12.8 33.28-17.92 51.2-7.68 23.04-17.92 43.52-25.6 66.56-2.56 7.68-5.12 12.8-7.68 20.48 0 2.56 0 2.56-2.56 5.12v7.68c0 5.12 0 5.12 5.12 5.12 12.8 0 23.04-2.56 35.84-5.12 23.04-5.12 43.52-10.24 66.56-17.92 12.8-2.56 20.48-12.8 25.6-23.04 5.12-10.24 10.24-23.04 12.8-33.28 5.12-12.8 7.68-25.6 12.8-35.84 0-2.56 2.56-5.12 5.12-5.12 0-17.92 5.12-30.72 10.24-46.08z m-30.72 10.24c-5.12 17.92-12.8 35.84-17.92 53.76-5.12 12.8-12.8 28.16-15.36 43.52-2.56 5.12-5.12 10.24-12.8 10.24-20.48 5.12-38.4 10.24-58.88 15.36 5.12-20.48 12.8-40.96 20.48-58.88 7.68-17.92 12.8-33.28 20.48-51.2 0-2.56 2.56-5.12 5.12-5.12 17.92-2.56 38.4-7.68 56.32-10.24 2.56-2.56 2.56 0 2.56 2.56z" fill="#040605" p-id="4685"></path><path d="M135.68 640c2.56-2.56 2.56-2.56 2.56-5.12 2.56-7.68 5.12-12.8 7.68-20.48 7.68-23.04 17.92-43.52 25.6-66.56 5.12-17.92 12.8-33.28 17.92-51.2 2.56-5.12 7.68-10.24 15.36-12.8 5.12-2.56 12.8-2.56 17.92-5.12 12.8-2.56 28.16-5.12 40.96-7.68 17.92-2.56 35.84-7.68 53.76-10.24 5.12 0 5.12 0 2.56 5.12l-7.68 23.04c-5.12 12.8-10.24 28.16-15.36 40.96 2.56-7.68 5.12-12.8 7.68-20.48 5.12-15.36 10.24-33.28 17.92-48.64 0-2.56 0-5.12-2.56-2.56-5.12 0-10.24 0-15.36 2.56-15.36 2.56-33.28 5.12-48.64 10.24-15.36 2.56-33.28 5.12-48.64 10.24-10.24 2.56-15.36 7.68-17.92 15.36-5.12 10.24-7.68 23.04-12.8 33.28-12.8 38.4-30.72 71.68-40.96 110.08z" fill="#040605" p-id="4686"></path><path d="M291.84 537.6c-5.12 12.8-10.24 23.04-12.8 35.84-2.56 10.24-7.68 23.04-12.8 33.28s-12.8 20.48-25.6 23.04c-23.04 5.12-43.52 12.8-66.56 17.92-10.24 2.56-23.04 5.12-35.84 5.12-5.12 0-5.12 0-5.12-5.12 0-2.56 2.56-5.12 0-7.68 0 2.56 0 5.12-2.56 7.68-2.56 5.12 0 5.12 5.12 5.12 7.68 0 12.8 0 20.48-2.56 28.16-5.12 53.76-12.8 81.92-20.48 12.8-2.56 23.04-10.24 28.16-23.04 2.56-2.56 2.56-7.68 5.12-10.24 7.68-15.36 10.24-33.28 17.92-48.64 2.56-5.12 2.56-10.24 7.68-15.36-2.56 0-5.12 2.56-5.12 5.12zM135.68 640c0 2.56 0 0 0 0zM294.4 532.48c2.56 0 2.56 0 0 0 2.56 0 2.56 0 0 0 2.56 0 2.56 0 0 0zM834.56 614.4c-2.56 10.24 0 12.8 10.24 15.36h5.12c5.12 0 7.68 0 10.24-2.56 5.12-2.56 10.24-7.68 17.92-10.24 10.24-5.12 15.36-12.8 20.48-23.04 0 0 0-2.56 2.56-2.56 2.56-7.68 0-12.8-10.24-15.36-15.36 0-28.16 2.56-40.96 12.8-7.68 10.24-12.8 17.92-15.36 25.6z" fill="#040605" p-id="4687"></path></svg>