<?xml version="1.0" standalone="no"?><!DOCTYPE svg PUBLIC "-//W3C//DTD SVG 1.1//EN" "http://www.w3.org/Graphics/SVG/1.1/DTD/svg11.dtd"><svg t="1533210855242" class="icon" style="" viewBox="0 0 1024 1024" version="1.1" xmlns="http://www.w3.org/2000/svg" p-id="2221" xmlns:xlink="http://www.w3.org/1999/xlink" width="128" height="128"><defs><style type="text/css"></style></defs><path d="M812.356 764.111l-127.675-127.676c34.717-45.306 55.362-101.963 55.362-163.451 0-148.561-120.433-268.995-268.995-268.995-148.562 0-268.996 120.433-268.996 268.995 0 148.562 120.433 268.995 268.996 268.995 63.469 0 121.795-21.996 167.799-58.762l127.199 127.202c6.395 6.395 14.772 9.591 23.154 9.591 8.38 0 16.761-3.198 23.154-9.591 12.788-12.787 12.788-33.521 0-46.309zM327.149 616.883c-38.437-38.437-59.605-89.541-59.605-143.9s21.168-105.462 59.605-143.9 89.541-59.604 143.9-59.604 105.462 21.168 143.899 59.604c38.437 38.437 59.605 89.541 59.605 143.9s-21.169 105.462-59.604 143.9c-38.437 38.436-89.541 59.604-143.9 59.604s-105.462-21.168-143.9-59.604z" p-id="2222" fill="#707070"></path></svg>