<?xml version="1.0" standalone="no"?><!DOCTYPE svg PUBLIC "-//W3C//DTD SVG 1.1//EN" "http://www.w3.org/Graphics/SVG/1.1/DTD/svg11.dtd"><svg t="1533191916125" class="icon" style="" viewBox="0 0 1024 1024" version="1.1" xmlns="http://www.w3.org/2000/svg" p-id="2174" xmlns:xlink="http://www.w3.org/1999/xlink" width="200" height="200"><defs><style type="text/css"></style></defs><path d="M512.713 670.038c119.556 0 216.698-94.775 216.698-214.165v-179.708c0-119.391-97.142-214.165-216.698-214.165-120.808 0-216.704 94.775-216.704 214.165v179.708c0 119.391 95.896 214.165 216.704 214.165v0zM851.459 411.56v-1.232c0-20.924-19.923-39.383-42.341-39.383s-41.1 18.457-41.1 39.383c0 4.924 0 8.615 2.494 12.312v30.767c0 139.087-115.825 254.785-257.798 254.785-141.98 0-259.046-115.699-259.046-254.785v-34.464c0-1.226 2.489-4.917 2.489-8.615 0-20.924-18.677-39.383-41.094-39.383-22.418 0-39.854 18.457-39.854 39.383v57.852c0 171.085 128.279 308.947 293.917 332.329v78.776h-112.089c-22.413 0-42.342 19.69-42.342 41.847 0 23.388 19.929 40.62 42.342 40.62h306.369c24.912 0 41.1-17.232 41.1-40.62 0-22.157-16.188-41.847-41.1-41.847h-113.332v-78.776c169.379-19.69 301.388-160.011 301.388-332.329v-56.62z" p-id="2175" fill="#8a8a8a"></path></svg>