<?xml version="1.0" standalone="no"?><!DOCTYPE svg PUBLIC "-//W3C//DTD SVG 1.1//EN" "http://www.w3.org/Graphics/SVG/1.1/DTD/svg11.dtd"><svg t="1533035698034" class="icon" style="" viewBox="0 0 1026 1024" version="1.1" xmlns="http://www.w3.org/2000/svg" p-id="3636" xmlns:xlink="http://www.w3.org/1999/xlink" width="200.390625" height="200"><defs><style type="text/css"></style></defs><path d="M1014.187886 494.2848 26.7648 110.281143c-2.177829-0.8576-4.4288-1.285486-6.6432-1.285486-3.927771 0-7.749486 1.285486-11.000686 3.713829-5.070629 3.856457-7.786057 10.000457-7.213714 16.285257l32.285257 348.289829 3.143314 35.285943-3.465143 33.142857L1.9072 893.646629c-0.570514 6.359771 2.143086 12.501943 7.213714 16.287086 3.214629 2.428343 7.071086 3.713829 11.000686 3.713829 2.249143 0 4.500114-0.427886 6.6432-1.285486l987.423086-384.005486c6.999771-2.7136 11.642514-9.499429 11.642514-17.000229C1025.8304 503.786057 1021.187657 497.000229 1014.187886 494.2848zM107.157943 472.071314l-0.142629-1.536L82.944 210.603886l767.241143 298.397257L107.157943 472.071314zM106.622171 553.322057l0.285257-2.750171 743.098514-36.856686L82.837943 812.075886 106.622171 553.322057z" p-id="3637"></path></svg>