<?xml version="1.0" standalone="no"?><!DOCTYPE svg PUBLIC "-//W3C//DTD SVG 1.1//EN" "http://www.w3.org/Graphics/SVG/1.1/DTD/svg11.dtd"><svg t="1533215707727" class="icon" style="" viewBox="0 0 1340 1024" version="1.1" xmlns="http://www.w3.org/2000/svg" p-id="1136" xmlns:xlink="http://www.w3.org/1999/xlink" width="167.5" height="128"><defs><style type="text/css"></style></defs><path d="M679.555203 322.953846c-131.282051 0-238.933333 107.651282-238.933333 238.933333s107.651282 238.933333 238.933333 238.933333c131.282051 0 238.933333-107.651282 238.933333-238.933333S810.837255 322.953846 679.555203 322.953846L679.555203 322.953846zM280.457767 23.630769 141.298793 23.630769l0 60.389744 139.158974 0L280.457767 23.630769 280.457767 23.630769zM1251.944947 144.410256l-259.938462 0c-21.005128-13.128205-42.010256-39.384615-65.641026-84.020513-26.25641-55.138462-120.779487-55.138462-120.779487-55.138462l-301.948718 0c0 0-31.507692-7.876923-68.266667 55.138462-23.630769 42.010256-47.261538 68.266667-68.266667 84.020513l-259.938462 0c-47.261538 0-84.020513 39.384615-84.020513 89.271795l0 695.794872c0 49.887179 36.758974 89.271795 84.020513 89.271795l1142.153846 0c47.261538 0 84.020513-39.384615 84.020513-89.271795L1333.339819 233.682051C1335.96546 183.794872 1296.580844 144.410256 1251.944947 144.410256L1251.944947 144.410256zM679.555203 861.210256c-165.415385 0-299.323077-133.907692-299.323077-299.323077s133.907692-299.323077 299.323077-299.323077c165.415385 0 299.323077 133.907692 299.323077 299.323077S842.344947 861.210256 679.555203 861.210256L679.555203 861.210256zM1107.53469 322.953846c-26.25641 0-49.887179-21.005128-49.887179-49.887179 0-26.25641 21.005128-49.887179 49.887179-49.887179 26.25641 0 49.887179 21.005128 49.887179 49.887179C1154.796229 301.948718 1133.791101 322.953846 1107.53469 322.953846L1107.53469 322.953846z" p-id="1137" fill="#2c2c2c"></path></svg>