<?xml version="1.0" standalone="no"?><!DOCTYPE svg PUBLIC "-//W3C//DTD SVG 1.1//EN" "http://www.w3.org/Graphics/SVG/1.1/DTD/svg11.dtd"><svg t="1533266382852" class="icon" style="" viewBox="0 0 1024 1024" version="1.1" xmlns="http://www.w3.org/2000/svg" p-id="14989" xmlns:xlink="http://www.w3.org/1999/xlink" width="128" height="128"><defs><style type="text/css"></style></defs><path d="M717.062887 96.275717c-47.128367 8.207939-86.162382 22.801309-119.089305 45.060265-11.263531 9.118682-22.532179 18.23941-33.793664 27.358091-17.701151 17.700127-35.407418 35.406394-53.107545 53.106522C435.304735 163.648151 402.669454 92.37999 261.630231 94.666056c-19.846 3.218298-39.698141 6.437619-59.544141 9.655917-50.684356 15.401782-99.30368 44.899606-128.745223 82.075297-17.291828 21.834284-34.1948 48.081065-45.060265 75.637678-64.173578 162.741501 47.009663 264.268826 122.307603 339.563696 43.982724 43.446511 87.979774 86.906326 131.962497 130.352837 54.17383 53.637618 108.365056 107.292632 162.53991 160.931273 19.634176 15.862269 34.407648 42.989093 77.246315 35.404348 51.285037-9.079796 105.017822-84.09428 138.400117-117.478621 63.829747-63.294558 127.676891-126.604466 191.507662-189.898001 59.086723-59.080583 125.662001-108.378359 151.274332-201.162556C1052.1005 243.75563 889.180943 66.298985 717.062887 96.275717zM924.663062 450.322266c-24.930809 42.714847-64.216557 73.873498-98.16781 107.823728-63.829747 63.294558-127.677914 126.603443-191.506638 189.898001-17.519002 17.519002-107.908662 117.597325-123.917264 115.868961-15.927761 1.420349-37.163411-30.80254-48.278563-41.84299-42.911322-42.37204-85.833901-84.761476-128.744199-127.134539-52.566216-52.02898-105.146758-104.07331-157.711951-156.102291-30.477129-30.473035-66.994834-59.160401-85.293595-101.386108-32.461319-74.90499-8.779967-168.137395 33.795711-214.037794 24.062022-25.942859 58.016345-48.66435 96.55815-59.544141 13.945617-2.145873 27.895327-4.291746 41.841967-6.437619 80.438007 0.355087 98.68765 29.5582 148.056034 53.106522 33.256428 33.255405 66.521043 66.521043 99.776448 99.776448 51.560306-39.532365 86.417185-101.332896 146.446373-131.962497 131.360793-67.022463 260.8254 27.610848 286.456151 136.790456C955.126888 362.64539 942.467567 419.819554 924.663062 450.322266z" p-id="14990" fill="#3f81c1"></path></svg>