<?xml version="1.0" standalone="no"?><!DOCTYPE svg PUBLIC "-//W3C//DTD SVG 1.1//EN" "http://www.w3.org/Graphics/SVG/1.1/DTD/svg11.dtd"><svg t="1533263461646" class="icon" style="" viewBox="0 0 1407 1024" version="1.1" xmlns="http://www.w3.org/2000/svg" p-id="12834" xmlns:xlink="http://www.w3.org/1999/xlink" width="175.875" height="128"><defs><style type="text/css"></style></defs><path d="M1259.885714 0l-914.285714 0c-80.786286 0-146.285714 65.499429-146.285714 146.285714l0 199.899429L0 512l199.314286 165.814857L199.314286 877.714286c0 80.786286 65.499429 146.285714 146.285714 146.285714l914.285714 0c80.786286 0 146.285714-65.499429 146.285714-146.285714L1406.171429 146.285714C1406.171429 65.499429 1340.672 0 1259.885714 0zM601.6 621.750857c-60.598857 0-109.714286-49.115429-109.714286-109.714286s49.115429-109.714286 109.714286-109.714286 109.714286 49.115429 109.714286 109.714286C711.314286 572.598857 662.198857 621.750857 601.6 621.750857zM1003.885714 621.750857c-60.598857 0-109.714286-49.115429-109.714286-109.714286s49.115429-109.714286 109.714286-109.714286 109.714286 49.115429 109.714286 109.714286C1113.6 572.598857 1064.484571 621.750857 1003.885714 621.750857z" p-id="12835" fill="#3f81c1"></path></svg>