<?xml version="1.0" standalone="no"?><!DOCTYPE svg PUBLIC "-//W3C//DTD SVG 1.1//EN" "http://www.w3.org/Graphics/SVG/1.1/DTD/svg11.dtd"><svg t="1533275231913" class="icon" style="" viewBox="0 0 1024 1024" version="1.1" xmlns="http://www.w3.org/2000/svg" p-id="15166" xmlns:xlink="http://www.w3.org/1999/xlink" width="128" height="128"><defs><style type="text/css"></style></defs><path d="M744.21527479 37.11625074c150.99199483 0 273.86823889 113.50432715 273.8682389 254.08308094 0 43.73561229-12.49588925 86.4299005-35.4050195 124.95889229-34.36369535 56.23150149-89.55387277 97.88446563-156.19861532 117.66962354-17.70250974 5.2066205-31.23972305 7.28926869-43.73561229 7.28926869-29.15707488 0-52.06620511-22.90913024-52.06620511-52.06620507s22.90913024-52.06620511 52.06620511-52.06620515c2.0826482 0 6.24794461 0 11.45456514-2.08264821 44.77693638-12.49588925 80.18195589-38.52899175 99.96711379-72.89268714 13.53721332-21.86780615 19.78515794-45.8182605 19.78515798-70.81003895 0-82.26460409-76.01665946-149.9506707-168.69450459-149.95067074-32.28104717 0-63.52077025 8.33059283-91.63652101 23.95045437-48.94223279 28.11575076-78.09930768 74.97533538-78.09930764 126.00021637l0 436.31479883c0 88.5125487-48.94223279 169.73582865-130.1655128 215.55408915-43.73561229 24.99177844-92.67784511 37.48766769-142.66140199 37.48766766-150.99199483 0-273.86823889-113.50432715-273.86823889-254.0830809 0-43.73561229 12.49588925-86.4299005 35.40501949-124.95889227 34.36369535-56.23150149 89.55387277-97.88446563 156.19861532-117.66962355 18.74383388-5.2066205 31.23972305-7.28926869 43.73561229-7.28926872 29.15707488 0 52.06620511 22.90913024 52.06620511 52.06620513s-22.90913024 52.06620511-52.06620511 52.0662051c-2.0826482 0-6.24794461 0-11.45456511 2.08264821-44.77693638 13.53721332-80.18195589 39.57031588-99.96711382 72.89268714-13.53721332 21.86780615-19.78515794 45.8182605-19.785158 70.81003896 0 82.26460409 76.01665946 149.9506707 169.73582872 149.95067073 32.28104717 0 63.52077025-8.33059283 91.636521-23.95045439 48.94223279-28.11575076 78.09930768-74.97533538 78.09930766-126.0002164L472.42968412 291.19933168c0-88.5125487 48.94223279-169.73582865 130.16551278-215.55408917 42.69428817-26.03310254 91.63652099-38.52899175 141.62007789-38.52899177z m-1059.02661197 468.595846c0 460.26525317 372.7940286 833.05928178 833.05928179 833.05928179s833.05928178-372.7940286 833.05928179-833.05928179-372.7940286-833.05928178-833.05928179-833.05928179-833.05928178 372.7940286-833.05928179 833.05928179z m-104.1324102 0c0-517.53807883 419.65361318-937.19169198 937.19169199-937.191692s937.19169198 419.65361318 937.191692 937.191692-419.65361318 937.19169198-937.191692 937.19169202-937.19169198-419.65361318-937.19169199-937.19169202z m0 0" fill="#3f81c1" p-id="15167"></path></svg>