<?xml version="1.0" standalone="no"?><!DOCTYPE svg PUBLIC "-//W3C//DTD SVG 1.1//EN" "http://www.w3.org/Graphics/SVG/1.1/DTD/svg11.dtd"><svg t="1533025334997" class="icon" style="" viewBox="0 0 1024 1024" version="1.1" xmlns="http://www.w3.org/2000/svg" p-id="2220" xmlns:xlink="http://www.w3.org/1999/xlink" width="200" height="200"><defs><style type="text/css"></style></defs><path d="M512 1024c-282.304 0-512-229.696-512-512 0-282.304 229.696-512 512-512 282.304 0 512 229.696 512 512C1024 794.304 794.304 1024 512 1024L512 1024zM512 48.768C256.576 48.768 48.768 256.576 48.768 512c0 255.424 207.808 463.168 463.232 463.168 255.424 0 463.168-207.744 463.168-463.168C975.168 256.576 767.424 48.768 512 48.768L512 48.768zM512 48.768" p-id="2221"></path><path d="M384 184c33.984 0 64 27.648 64 61.632l0 506.112c0 33.984-30.016 61.632-63.936 61.632l0 0C350.016 813.376 320 785.728 320 751.744L320 245.632C320 211.584 349.888 184 384 184L384 184 384 184zM381.312 184" p-id="2222"></path><path d="M640 184c33.984 0 64 27.648 64 61.632l0 506.112c0 33.984-30.016 61.632-64 61.632l0 0c-33.984 0-64-27.648-64-61.632L576 245.632C576 211.584 605.888 184 640 184L640 184 640 184zM642.688 184" p-id="2223"></path></svg>