<?xml version="1.0" standalone="no"?><!DOCTYPE svg PUBLIC "-//W3C//DTD SVG 1.1//EN" "http://www.w3.org/Graphics/SVG/1.1/DTD/svg11.dtd"><svg t="1533272898668" class="icon" style="" viewBox="0 0 1152 1024" version="1.1" xmlns="http://www.w3.org/2000/svg" p-id="6465" xmlns:xlink="http://www.w3.org/1999/xlink" width="144" height="128"><defs><style type="text/css"></style></defs><path d="M576 960a725.952 725.952 0 0 1-185.28-24.32A348.096 348.096 0 0 1 160 1024a314.944 314.944 0 0 1-55.168-5.76 400 400 0 0 0 80.448-177.92A409.216 409.216 0 0 1 0 512c0-247.68 257.856-512 576-512s576 264.32 576 512-257.856 448-576 448zM320 448a64 64 0 1 0 64 64 64 64 0 0 0-64-64z m256 0a64 64 0 1 0 64 64 64 64 0 0 0-64-64z m256 0a64 64 0 1 0 64 64 64 64 0 0 0-64-64z" fill="#2aa515" p-id="6466"></path></svg>