<?xml version="1.0" standalone="no"?><!DOCTYPE svg PUBLIC "-//W3C//DTD SVG 1.1//EN" "http://www.w3.org/Graphics/SVG/1.1/DTD/svg11.dtd"><svg t="1533288200016" class="icon" style="" viewBox="0 0 1024 1024" version="1.1" xmlns="http://www.w3.org/2000/svg" p-id="2212" xmlns:xlink="http://www.w3.org/1999/xlink" width="128" height="128"><defs><style type="text/css"></style></defs><path d="M920.086325 960.0055l-59.820434 0c0.801249-30.511921-1.556449-64.159252 1.178849-92.690052l86.771249 0 0 60.59917C944.961876 944.82066 935.224094 955.148889 920.086325 960.0055zM947.037141 786.510074 697.28596 786.510074l0-58.216913c-23.461341-2.78237-51.992141-0.401136-77.411067-1.202385-2.735297 75.265194-0.3776 155.670455-1.178849 232.915747l-45.720298 0c-39.306214-7.993045-28.1532-67.789942-28.1532-115.279536L544.822546 660.549268c0-27.706015-5.517667-69.228711 1.178849-91.511203 8.016581-26.597775 42.701544-22.564925 77.411067-22.564925l170.030511 0 0 158.028153 78.56638 0c0.777713-52.275597-1.579985-107.733677 1.155313-158.028153 37.821397-2.287089 72.835865-1.721201 75.052347 32.067346l0 99.834776C945.480692 712.046129 947.815877 750.858086 947.037141 786.510074zM923.599336 476.348012c-22.801309 6.508227-60.669778 1.202385-87.951121 1.202385L656.233985 477.550397c-27.04496 0-67.153446 5.753027-89.12997-1.202385-31.007201-9.832949-22.282492-71.16276-22.282492-114.076128L544.821523 179.273013c0-49.563836-10.704806-108.346637 26.997887-115.279536l349.44474 0c14.241352 5.352915 24.02723 15.231913 26.950815 32.090882l0 349.374132C945.009971 459.984323 937.534719 472.363258 923.599336 476.348012zM872.00833 141.239791 621.053742 141.239791c-1.367137 0.188288-1.272993 1.885953-1.178849 3.560082l0 255.481695 252.133438 0L872.00833 141.239791zM734.800365 219.663932c82.692351-15.656585 81.112366 117.071346 0 103.394858C683.184801 314.335105 681.510672 229.755778 734.800365 219.663932zM479.177454 849.489454c0 46.215578 9.809413 106.390076-29.333072 110.516046L103.913675 960.0055c-14.33652-4.456498-24.050766-13.651928-28.129664-28.5308L75.78401 573.801555c3.418866-10.469446 11.294231-22.683628 23.461341-26.149567 22.942525-6.5553 60.433394-1.178849 87.951121-1.178849l179.390693 0c26.527167 0 65.10274-6.012947 89.12997 1.178849 32.492018 9.714246 23.461341 70.053496 23.461341 112.89728L479.178477 849.489454zM402.945235 623.694895 151.99167 623.694895c-1.343601 0.211824-1.249457 1.885953-1.155313 3.583618l0 255.481695 252.109901 0L402.946258 623.694895zM271.609001 700.940187c37.490869-4.197602 68.474534 32.327266 53.92619 72.482825-20.136619 55.694463-116.528993 34.779108-98.490152-35.628452C232.042867 718.317972 246.449995 703.769628 271.609001 700.940187zM459.229123 475.169163c-18.131963 7.875365-66.823941 2.381234-90.285283 2.381234L183.658903 477.550397c-42.820248 0-101.296057 10.351766-107.874893-27.351951L75.78401 91.321892c4.787026-13.369495 13.204743-23.060205 26.974351-27.328415L452.203102 63.993476c35.534308 3.560082 26.974351 66.965158 26.974351 108.134813l0 196.08491C479.177454 410.821623 487.076354 463.049125 459.229123 475.169163zM402.945235 141.239791 151.99167 141.239791c-1.343601 0.188288-1.249457 1.885953-1.155313 3.560082l0 255.481695 252.109901 0L402.946258 141.239791zM265.738293 219.663932c35.109636-6.720052 62.720484 17.330714 63.333444 49.916876 0.777713 42.961464-42.513256 66.564022-76.232219 48.714492C214.287481 297.876248 216.83449 229.025137 265.738293 219.663932zM698.464809 867.315448l83.234703 0 0 92.690052-84.413552 0C698.063673 929.494603 695.729511 895.846248 698.464809 867.315448z" p-id="2213" fill="#8a8a8a"></path></svg>