<?xml version="1.0" standalone="no"?><!DOCTYPE svg PUBLIC "-//W3C//DTD SVG 1.1//EN" "http://www.w3.org/Graphics/SVG/1.1/DTD/svg11.dtd"><svg t="1533274920727" class="icon" style="" viewBox="0 0 1025 1024" version="1.1" xmlns="http://www.w3.org/2000/svg" p-id="6806" xmlns:xlink="http://www.w3.org/1999/xlink" width="128.125" height="128"><defs><style type="text/css"></style></defs><path d="M748.288 276.672c1.632-58.24-47.008-67.936-47.008-67.936l-207.552 0c0 0-25.952-213.504-272.416-208.64-246.464 4.864-220.512 176.32-220.512 176.32l35.68 326.72c0 0 1.6 66.336 56.736 66.336 81.088-0.032 68.096-101.92 69.728-169.856 1.632-67.936 60-66.304 60-66.304l484.832 0C707.744 333.28 746.688 334.912 748.288 276.672zM1023.2 847.616l-35.68-326.72c0 0-1.632-66.336-56.736-66.336-81.088 0.032-68.096 101.888-69.728 169.824-1.632 67.936-60 66.304-60 66.304L316.256 690.688c0 0-38.912-1.6-40.544 56.64-1.632 58.24 47.008 67.936 47.008 67.936l207.552 0c0 0 25.952 213.504 272.416 208.64C1049.152 1019.072 1023.2 847.616 1023.2 847.616z" p-id="6807" fill="#1296db"></path></svg>